<svg width="512px" height="512px" viewBox="0 0 512 512" enable-background="new 0 0 512 512" id="fox" version="1.1" xml:space="preserve" xmlns="http://www.w3.org/2000/svg" xmlns:xlink="http://www.w3.org/1999/xlink"><g><path d="M67.762,234.881h-0.005c-3.588,0-6.497,2.909-6.497,6.498v11.791c0,18.97,12.207,35.377,30.377,40.828l9.792,2.938   c3.438,1.032,7.061-0.918,8.092-4.355l0.001-0.005c1.031-3.437-0.919-7.06-4.356-8.091l-9.793-2.938   c-12.531-3.761-21.112-15.295-21.112-28.378v-11.79C74.26,237.79,71.351,234.881,67.762,234.881z"/><path d="M90.758,329.367l0.331,0.091l14.734,50.351l-5.201,72.488h-8.19c-3.59,0-6.5,2.91-6.5,6.5s2.91,6.5,6.5,6.5h72.337   l18.006-92.181l-8.467-58.438c-0.874-6.027-5.162-11-10.995-12.75l-30.109-9.033c-3.438-1.031-7.06,0.919-8.091,4.356l-0.002,0.005   c-1.03,3.437,0.92,7.059,4.357,8.09l30.109,9.033c0.985,0.296,1.717,1.145,1.865,2.163l8.149,56.25l-15.529,79.504h-13.615   l10.321-79.661l-9.892-43.108l-46.643-12.687c-35.354-10.01-60.044-42.662-60.044-79.404v-37.765   c2.331,2.304,4.92,4.37,7.764,6.108l18.147,11.088c6.977,4.263,14.799,6.394,22.621,6.394s15.644-2.131,22.62-6.394l18.147-11.088   v0c7.623-4.658,13.508-11.578,17.039-19.575c17.165,23.763,45.067,38.431,74.96,38.431h80.953   c34.402,0,60.109,35.493,60.109,67.229c0,15.422-5.835,30.087-16.431,41.294l-3.381,3.577l-0.368,0.62   c-8.57,14.417-6.625,32.844,4.965,44.967c3.155,3.301,4.232,8.055,2.81,12.39l-18.887,57.585h-14.218l17.887-58.323l-5.664-2.174   c-26.597-10.209-48.092-27.322-63.886-50.862c-7.503-11.183-11.869-21.249-14.076-27.181c-1.164-3.129-4.496-4.873-7.729-4.033   l-0.014,0.004c-3.712,0.965-5.801,4.924-4.468,8.52c1.005,2.709,2.386,6.119,4.219,10.03h-41.254c-3.588,0-6.497,2.909-6.497,6.497   v0.006c0,3.588,2.909,6.497,6.497,6.497h18.234c10.547,16.263,22.952,29.72,36.917,40.034   c10.894,8.047,22.554,13.985,34.868,17.828l-17.027,53.157h-9.662c-3.589,0-6.499,2.91-6.499,6.5s2.91,6.5,6.499,6.5h75.29   l21.821-66.532c2.904-8.855,0.729-18.563-5.676-25.332c-7.356-7.771-8.801-19.541-3.615-28.848l2.36-2.496   c2.563-2.713,4.888-5.597,6.983-8.615v28.996c0,52.793,39.992,96.412,91.271,102.174l0.409,0.099h0.449   c3.518,0.365,7.086,0.555,10.697,0.555h24.73c3.701,0,6.701-3,6.701-6.7c0-3.396-2.541-6.248-5.912-6.648   c-24.753-2.932-44.014-24.048-44.014-49.577v-68.003c0-63.024-47.754-115.097-108.977-121.957l-0.354-0.174h-1.251   c-3.999-0.395-8.052-0.601-12.151-0.601h-21.709h-80.953c-30.162,0-57.962-17.38-71.235-44.387V130.62   c0-0.144-0.01-0.286-0.011-0.43h0.011V59.238c0-3.38-1.239-6.701-3.66-9.06c-4.059-3.953-10.133-4.525-14.772-1.752   c-7.505,4.482-13.947,10.242-19.148,17.121c-4.873,6.443-8.557,13.862-10.847,21.688H69.619   c-2.29-7.825-5.974-15.244-10.847-21.688c-5.13-6.783-11.466-12.478-18.836-16.933c-2.67-1.613-5.85-2.303-8.907-1.688   c-5.897,1.187-9.839,6.312-9.839,11.964v71.299h0.011c-0.002,0.144-0.011,0.286-0.011,0.43v38.14c0,0.775,0.034,1.546,0.076,2.316   H21.19v66.361C21.19,279.968,49.771,317.763,90.758,329.367z M129.948,340.027l7.629,33.247l-10.238,79.022h-13.683l5.301-73.893   l-13.151-44.944L129.948,340.027z M230.048,341.277h14.172c1.247,2.093,2.593,4.243,4.054,6.438   c7.366,11.067,18.54,24.57,34.622,36.584C259.413,375.046,242.178,358.032,230.048,341.277z M282.7,452.297l16.015-49.995   c4.435,0.841,8.942,1.428,13.524,1.753l-14.795,48.242H282.7z M391.211,322.017c0.178,3.434,3.044,6.109,6.481,6.109   c3.738,0,6.692-3.146,6.494-6.879c-1.166-21.963-7.904-43.191-19.664-61.777c-5.752-9.089-12.594-17.367-20.323-24.69   c37.567,17.44,63.685,55.519,63.685,99.589v68.003c0,20.148,9.518,38.114,24.295,49.64c-0.76-0.061-1.51-0.155-2.266-0.234   l-0.178-0.043h-0.234c-0.075-0.009-0.151-0.016-0.227-0.023c-25.642-3.815-44.906-26.141-44.906-52.172v-47.119   c0-3.588-2.908-6.497-6.497-6.497h-0.005c-3.588,0-6.498,2.909-6.498,6.497v47.119c0,10.037,2.307,19.629,6.429,28.237   c-17.371-16.39-28.245-39.595-28.245-65.306v-70.605c0-17.916-6.502-36.25-17.946-51.05   C375.128,261.14,389.567,290.189,391.211,322.017z M117.041,73.389c3.901-5.159,8.678-9.542,14.213-13.044v39.346   c-5.942-5.839-13.553-9.982-22.043-11.643C111.068,82.779,113.707,77.797,117.041,73.389z M34.19,60.345   c5.535,3.502,10.312,7.885,14.214,13.044c3.334,4.409,5.973,9.391,7.829,14.659c-8.49,1.661-16.101,5.804-22.043,11.643V60.345z    M34.19,130.62c0-16.754,13.63-30.385,30.385-30.385h36.294c16.755,0,30.385,13.63,30.385,30.385v14.266l-8.417-0.019   c-16.742,0-30.539,12.852-32.045,29.208l-8.2,7.562l-7.804-6.742v-1.509c0-10.774-4.949-28.85-38.099-28.85H34.19V130.62z    M34.19,157.536h2.499c25.099,0,25.099,11.107,25.099,15.85v7.458l12.305,10.63c2.443,2.111,5.469,3.162,8.491,3.162   c3.159,0,6.315-1.149,8.8-3.436l12.272-11.301v-2.851c0-10.576,8.604-19.181,19.181-19.181l8.417,0.019v10.874   c0,10.512-5.572,20.447-14.542,25.927l-18.147,11.089c-9.771,5.972-21.912,5.971-31.685,0l-18.147-11.089   c-8.97-5.48-14.542-15.415-14.542-25.927V157.536z"/></g></svg>