<svg width="512px" height="512px" viewBox="0 0 512 512" enable-background="new 0 0 512 512" id="koala" version="1.1" xml:space="preserve" xmlns="http://www.w3.org/2000/svg" xmlns:xlink="http://www.w3.org/1999/xlink"><g><circle cx="275.96" cy="111.008" r="6.825"/><circle cx="211.198" cy="111.008" r="6.825"/><path d="M159.128,430.731h-20.89c-22.006,0-39.91,17.908-39.91,39.92c0,4.935,1.919,9.57,5.394,13.046   c3.482,3.498,8.122,5.424,13.066,5.424h187.83c79.407,0,144.081-64.141,144.349-143.549   c0.209-61.998-23.837-120.312-67.652-164.117c-14.566-14.565-30.939-27.077-48.723-37.254c0.501-2.086,0.915-4.196,1.271-6.322   h8.864c24.963,0,45.199-20.236,45.199-45.2v-24.6c0-24.964-20.236-45.2-45.199-45.2h-27.26c-0.654,0-1.305,0.014-1.947,0.041   c-12.512,0.532-23.371,7.063-29.982,16.808c-12.577-6.174-26.492-9.419-40.632-9.419c-13.991,0-27.793,3.189-40.3,9.257   c-6.622-9.656-17.429-16.117-29.869-16.646c-0.647-0.027-1.298-0.041-1.952-0.041h-27.26c-24.963,0-45.2,20.236-45.2,45.199v24.601   c0,24.964,20.237,45.2,45.2,45.2h8.423c3.403,20.335,13.531,38.976,28.948,52.979c7.363,6.688,15.67,12.069,24.586,16.028v30.845   c0,15.66-11.464,28.688-26.438,31.146v-15.644c0-12.705,3.155-25.103,9.171-36.197c1.625-2.995,0.712-6.729-2.146-8.586   l-0.002-0.001c-3.161-2.052-7.43-1.011-9.229,2.3c-4.458,8.201-7.579,17.013-9.28,26.14c-6.271,6.636-15.112,10.412-24.525,10.412   h-43.37c-9.743,0-18.909,3.661-25.805,10.305c-6.98,6.712-10.825,15.66-10.825,25.195c0,19.483,16.28,35.345,36.349,35.493   c4.698,11.325,15.11,19.866,27.802,21.651c1.651,0.235,3.333,0.355,4.999,0.355h36.848c-6.497,14.888-9.901,31.091-9.901,47.439   V430.731z M374.926,68.079v24.6c0,17.755-14.444,32.2-32.199,32.2h-8.021v-4.749c0-1.916,1.559-3.475,3.475-3.475   c15.807,0,28.666-12.86,28.666-28.667V60.256h7.115C374.588,62.762,374.926,65.381,374.926,68.079z M143.525,124.879   c-17.755,0-32.2-14.445-32.2-32.2v-24.6c0-2.698,0.338-5.317,0.966-7.823h7.114v27.732c0,15.807,12.86,28.667,28.667,28.667   c1.499,0,2.745,1.22,2.777,2.718l0.117,5.506H143.525z M188.562,180.353c-13.389-12.58-22.414-29.827-24.465-49.431l-0.251-11.825   c-0.18-8.49-7.278-15.443-15.771-15.441c-8.64,0.002-15.67-7.027-15.67-15.667V60.256h5.04v0.003   c10.675,0,19.772,7.163,22.572,17.037c0.832,2.932,3.58,4.897,6.624,4.724l0,0c4.09-0.233,7.028-4.167,5.929-8.114   c-4.299-15.433-18.476-26.645-35.121-26.646v-0.003h-18.456c5.911-6.953,14.712-11.377,24.532-11.377h27.26   c0.466,0,0.93,0.01,1.396,0.029c13.64,0.58,24.324,12.028,24.324,26.063v6.401c0,3.59,2.91,6.5,6.5,6.5l0,0   c3.59,0,6.5-2.91,6.5-6.5v-6.401c0-3.681-0.505-7.237-1.432-10.614c10.797-5.277,22.731-8.049,34.833-8.049   c12.271,0,24.341,2.838,35.222,8.24c-0.894,3.319-1.381,6.812-1.381,10.423v6.401c0,3.59,2.91,6.5,6.5,6.5l0,0   c3.59,0,6.5-2.91,6.5-6.5v-6.401c0-14.035,10.686-25.483,24.329-26.063c0.462-0.02,0.925-0.029,1.392-0.029h27.26   c9.82,0,18.621,4.424,24.532,11.377h-18.456v0.003c-16.645,0.001-30.822,11.214-35.121,26.646c-1.1,3.947,1.839,7.881,5.93,8.114   l0,0c3.043,0.174,5.791-1.792,6.623-4.724c2.8-9.874,11.896-17.037,22.572-17.037v-0.003h5.039v27.732   c0,8.558-6.865,15.793-15.422,15.669c-9.195-0.135-16.719,7.307-16.719,16.473v10.856c-2.062,19.553-11.061,36.757-24.406,49.318   c-3.723-12.284-13.603-21.932-26.031-25.328v-16.855c0-15.338-12.003-28.319-27.334-28.774   c-15.931-0.474-29.041,12.349-29.041,28.175v17.373C202.313,158.224,192.302,167.95,188.562,180.353z M258.268,137.521v21.932   c0,8.375-6.813,15.188-15.188,15.188s-15.188-6.813-15.188-15.188v-21.932c0-8.374,6.813-15.188,15.188-15.188   S258.268,129.147,258.268,137.521z M200.046,189.304c0.731-9.808,7.279-18.036,16.2-21.228   c3.652,11.338,14.298,19.565,26.834,19.565c12.503,0,23.125-8.186,26.805-19.478c8.779,3.251,15.202,11.403,15.94,21.101   c-12.394,7.955-27.134,12.544-42.92,12.544C227.145,201.809,212.427,197.234,200.046,189.304z M96.682,304.802   c0,0.105,0.006,0.21,0.007,0.315c-11.63-1.397-20.657-10.868-20.657-22.315c0-5.967,2.427-11.586,6.84-15.829   c4.466-4.302,10.429-6.671,16.79-6.671h43.37c8.206,0,16.104-2.105,23.012-5.967v14.967h-33.862c-1.666,0-3.348,0.119-4.979,0.353   c-7.567,1.058-14.713,4.625-20.117,10.041C100.376,286.404,96.682,295.32,96.682,304.802z M172.128,430.731v-42.99   c0-16.488,3.886-32.807,11.258-47.439h8.945c38.02,0,72.206-23.13,86.502-58h63.176c3.589,0,6.498-2.91,6.498-6.499V275.8   c0-3.589-2.909-6.498-6.498-6.498h-58.923c1.262-5.093,2.097-10.29,2.487-15.561c0.279-3.752-2.728-6.939-6.49-6.939l0,0   c-3.412,0-6.223,2.642-6.475,6.045c-0.527,7.125-1.989,14.094-4.367,20.791c-11.332,32.098-41.838,53.664-75.911,53.664h-60.15   c-1.053,0-2.117-0.076-3.175-0.227c-11.017-1.55-19.325-11.125-19.325-22.273c0-6.009,2.343-11.66,6.602-15.919   c3.421-3.43,7.938-5.686,12.737-6.356c1.044-0.149,2.108-0.225,3.161-0.225h41.73c24.615,0,44.57-19.955,44.57-44.57v-26.217   c7.887,2.161,16.09,3.294,24.423,3.294c22.985,0,45.007-8.506,62.009-23.95c10.457-9.499,18.485-21.132,23.635-33.978   c15.854,9.344,30.484,20.678,43.574,33.768c41.48,41.471,64.186,96.722,63.842,155.438   c-0.422,72.027-59.318,130.034-131.347,130.034h-3.271v-32.39h7.443c30.643,0,55.996-23.077,59.596-52.765   c0.469-3.865-2.568-7.27-6.462-7.27l0,0c-3.292,0-6.049,2.466-6.448,5.734c-2.836,23.24-22.691,41.3-46.686,41.3h-7.443v-59.431   c0-3.59-2.91-6.499-6.499-6.499h-0.001c-3.59,0-6.5,2.909-6.5,6.499v104.82H116.938c-1.111,0-2.223-0.277-3.147-0.896   c-1.574-1.053-2.463-2.743-2.463-4.574c0-14.844,12.072-26.92,26.91-26.92h50.811c3.589,0,6.5-2.909,6.5-6.499v-0.001   c0-3.59-2.91-6.5-6.5-6.5H172.128z"/><path d="M294.848,326.901L294.848,326.901c-3.59,0-6.5,2.91-6.5,6.5v9.9c0,3.59,2.91,6.5,6.5,6.5l0,0c3.59,0,6.5-2.91,6.5-6.5v-9.9   C301.348,329.812,298.438,326.901,294.848,326.901z"/></g></svg>