<svg width="512px" height="512px" viewBox="0 0 512 512" enable-background="new 0 0 512 512" id="rabbit" version="1.1" xml:space="preserve" xmlns="http://www.w3.org/2000/svg" xmlns:xlink="http://www.w3.org/1999/xlink"><g><path d="M477.399,221.936c0.366-22.896-18.891-40.836-41.286-39.378c-21.229,1.392-37.383,19.725-36.143,40.932   c-24.551-11.413-53.46-14.848-82.726-9.361c-10.024,1.879-20.45,2.931-30.989,3.127l-15.994,0.298   c-2.712,0.051-5.421,0.114-8.126,0.178c-13.189,0.309-25.648,0.602-37.963-0.568c-13.264-1.261-26.511-5.381-38.542-11.947   c1.667-5.295,3.983-9.076,6.657-10.533c51.321-27.965,82.668-67.685,90.648-114.866c0.563-3.32-0.641-6.496-3.217-8.494   c-2.83-2.193-7.781-3.903-23.063,0.049c-7.665,1.983-16.001,4.924-19.954,6.685c-2.858,1.273-5.62,2.619-8.327,4.004   c0.201-1.718,0.314-3.328,0.412-4.769c0.066-0.973,0.125-1.88,0.216-2.715c0.333-3.125-0.69-5.347-1.623-6.682   c-4.028-5.72-12.677-4.214-20.606-1.983c-6.844,1.924-14.289,4.898-18.631,6.993c-18.693,9.013-28.936,25.111-33.377,33.904   c-3.649,7.221-6.901,18.008-13.376,39.49c-1.546,5.102-3.127,8.866-5.683,14.441c-2.276,4.96-10.563,12.533-15.559,16.409   c-20.164,3.148-39.06,13.427-53.048,29.128l-19.426,21.8c-8.208,5.586-13.079,14.748-13.079,24.699   c0,2.058,0.576,13.589,3.299,18.686c2.129,4.037,5.281,7.554,9.149,10.193l3.202,2.154c5.963,4.043,12.061,7.084,18.643,9.299   l1.018,0.339h0.028c5.921,1.891,12.216,3.108,19.182,3.716c1.435,0.132,2.982,0.237,4.886,0.332   c2.188,0.104,4.469,0.155,6.973,0.155c1.975,0,3.987-0.056,5.97-0.166c1.46-0.079,2.923-0.191,4.386-0.331   c20.917,7.207,34.087,19.205,42.551,38.783c4.886,11.295,7.364,23.606,7.364,36.59v35.418   c-14.549,4.264-25.209,17.723-25.209,33.632v6.5h51.288l25.5-56.167c6.343,2.563,12.875,4.694,19.457,6.347   c14.023,3.527,28.84,4.94,44.077,4.254c1.779,1.556,3.625,3.029,5.541,4.393h-39.106c-19.158,0-34.688,15.53-34.688,34.688v6.491   h117.996c3.59,0,6.499-2.909,6.499-6.499v-0.002c0-3.59-2.909-6.499-6.499-6.499h-104c2.769-8.789,10.998-15.18,20.692-15.18   h73.308c3.609,0,6.535-2.927,6.535-6.536v-0.263c0-3.391-2.598-6.16-5.971-6.512c-1.979-0.206-3.945-0.516-5.885-0.927   c-9.689-2.022-18.758-6.602-26.253-13.268l-0.372-0.325c-6.54-5.931-11.691-13.369-14.9-21.523   c-1.211-3.064-2.161-6.266-2.822-9.516c-0.062-0.307-0.123-0.612-0.189-0.989c-0.639-3.417-0.963-6.949-0.963-10.498   c0-29.649,22.613-54.116,51.5-57.059c3.307-0.337,5.855-3.051,5.855-6.374v-0.202c0-3.789-3.275-6.747-7.047-6.37   c-35.498,3.546-63.309,33.589-63.309,70.005c0,4.349,0.398,8.685,1.172,12.816c0.071,0.406,0.151,0.812,0.242,1.264   c0.813,3.995,1.981,7.933,3.47,11.693c1.979,5.029,4.563,9.836,7.661,14.298c-10.11-0.289-19.95-1.598-29.374-3.97   c-6.905-1.733-13.75-4.044-20.343-6.868l-0.092-0.039c-4.219-1.786-9.112-0.431-11.812,3.271l-0.43,0.59l-23.823,52.475h-28.936   c2.781-8.994,11.175-15.548,21.07-15.548h4.313c3.59,0,6.5-2.91,6.5-6.5l0,0c0-3.59-2.91-6.5-6.5-6.5h-1.152v-34.002   c0-14.77-2.837-28.816-8.432-41.75c-7.301-16.887-17.928-29.253-32.748-37.959c5.175-1.593,10.228-3.556,15.092-5.887l0.88-0.421   c3.237-1.55,4.605-5.431,3.056-8.669l0,0c-1.55-3.238-5.432-4.607-8.67-3.057l-0.89,0.427c-6.435,3.083-13.25,5.457-20.246,7.053   c-5.284,1.197-10.682,1.951-16.052,2.24c-1.754,0.098-3.524,0.146-5.261,0.146c-2.295,0-4.374-0.046-6.338-0.14   c-1.704-0.085-3.082-0.179-4.363-0.296c-6.365-0.555-12.004-1.677-17.24-3.431l-0.375-0.125c-5.159-1.771-9.979-4.182-14.724-7.352   c3.523-2.409,6.46-5.675,8.451-9.56c3.155-6.156,3.724-13.153,1.603-19.699c-1.411-4.354-3.923-8.138-7.246-11.1l16.062-18.024   c14.135-15.867,34.073-25.264,54.683-25.781c0.7-0.016,1.4-0.023,2.109-0.023h9.436c7.596,0.509,14.534-4.371,16.583-11.719   c5.596-20.057,30.014-64.149,82.374-87.472c6.64-2.957,20.41-7.104,27.304-7.867c-8.513,41.706-36.491,75.737-83.228,101.203   c-12.212,6.655-15.24,25.129-15.958,35.549c-0.08,1.155-0.078,2.656-0.015,4.236c0.16,4.028,3.883,6.957,7.829,6.131l0,0   c3.105-0.65,5.292-3.449,5.161-6.619c-0.046-1.116-0.054-2.15-0.005-2.855c0.026-0.377,0.062-0.742,0.093-1.114   c12.546,6.261,26.141,10.215,39.77,11.511c13.083,1.245,26.513,0.93,39.5,0.623c2.684-0.063,5.371-0.126,8.063-0.176l15.994-0.298   c11.26-0.21,22.41-1.336,33.143-3.348c35.92-6.73,71.098,1.229,96.516,21.848c22.167,17.98,34.744,44.285,35.414,74.069   c0.02,0.838,0.029,1.679,0.029,2.521c0,58.464-45.958,106.396-103.645,109.565c-3.424,0.188-6.088,3.052-6.088,6.481l0,0   c0,3.733,3.141,6.702,6.867,6.496c64.494-3.574,115.865-57.173,115.865-122.543c0-0.94-0.011-1.879-0.031-2.814   c-0.529-23.492-7.654-45.093-20.465-62.944c9.937-1.397,18.871-6.521,25.161-14.591   C474.393,238.415,477.266,230.276,477.399,221.936z M51.426,242.075c1.955,1.51,3.417,3.571,4.198,5.982   c1.048,3.235,0.762,6.702-0.805,9.761c-1.31,2.555-3.44,4.561-5.975,5.764c-0.64-2.812-1.248-7.753-1.248-10.806   C47.596,248.801,48.976,245.049,51.426,242.075z M147.096,173.908c-0.398,1.426-1.765,2.363-3.25,2.237l-3.404-0.008   c2.888-3.161,5.545-6.632,7.08-9.978c2.739-5.974,4.556-10.308,6.311-16.101c6.061-20.108,9.4-31.186,12.535-37.389   c2.979-5.896,11.613-20.436,27.422-28.058c6.985-3.369,16.701-6.594,21.977-7.48c-0.352,5.076-0.928,10.707-5.316,15.514   C171.51,118.996,152.218,155.549,147.096,173.908z M412.954,222.916c-0.878-13.404,8.712-25.113,21.74-27.129   c3.833,3.677,6.183,8.67,6.534,14.031c0.373,5.698-1.495,11.201-5.262,15.494c-3.767,4.295-8.982,6.865-14.686,7.238   c-1.968,0.132-3.935-0.025-5.865-0.435c-0.053-0.035-0.105-0.068-0.158-0.104C413.943,229.165,413.164,226.116,412.954,222.916z    M458.013,238.209c-4.535,5.17-10.815,8.265-17.685,8.715c-2.533,0.168-5.052-0.059-7.506-0.624   c-0.791-0.791-1.598-1.57-2.416-2.339c5.879-1.877,11.159-5.318,15.334-10.076c6.057-6.904,9.061-15.753,8.461-24.917   c-0.219-3.336-0.929-6.58-2.063-9.652c6.854,4.234,11.643,11.6,12.209,20.232C464.797,226.413,462.547,233.04,458.013,238.209z"/><path d="M92.584,214.3c-2.841,0.868-4.437,3.867-3.565,6.697c0.872,2.829,3.882,4.42,6.723,3.551   c2.841-0.868,4.438-3.867,3.565-6.697C98.436,215.022,95.426,213.431,92.584,214.3z"/></g></svg>