<?xml version="1.0" encoding="utf-8"?>
<!-- Uploaded to SVGRepo https://www.svgrepo.com -->
<!DOCTYPE svg PUBLIC "-//W3C//DTD SVG 1.1//EN" "http://www.w3.org/Graphics/SVG/1.1/DTD/svg11.dtd">
<svg width="1000px" height="1000px" viewBox="0 0 1000 1000" version="1.1" xmlns="http://www.w3.org/2000/svg" xmlns:xlink="http://www.w3.org/1999/xlink" x="0px" y="0px" enable-background="new 0 0 1000 1000" xml:space="preserve">

<g><g transform="translate(0.000000,511.000000) scale(0.100000,-0.100000)"><path d="M295.4,4974.7c-37.6-19.8-94.9-69.2-128.5-108.7l-59.3-75.1l-5.9-2759.5c-4-2662.6-4-2763.4,31.6-2830.6c21.7-37.5,71.2-94.9,110.7-128.5l75.1-59.3h1043.7h1043.7l75.1,59.3c39.5,33.6,89,90.9,110.7,128.5c35.6,67.2,35.6,168,31.6,2830.6l-5.9,2759.5l-61.3,77.1c-120.6,150.2-75.1,144.3-1193.9,144.3C427.9,5012.2,358.7,5010.2,295.4,4974.7z M2311.7,2007.6V-680.7h-948.8H414v2688.3v2688.3h948.8h948.8V2007.6z"/><path d="M730.3,4221.5v-158.1h632.5h632.5v158.1v158.1h-632.5H730.3V4221.5z"/><path d="M730.3,3589v-158.1h632.5h632.5V3589v158.1h-632.5H730.3V3589z"/><path d="M730.3,2956.4v-158.1h632.5h632.5v158.1v158.1h-632.5H730.3V2956.4z"/><path d="M1200.8,716.8c-197.7-75.1-310.3-174-407.2-357.8c-43.5-83-53.4-126.5-53.4-249.1c0-132.4,7.9-162.1,67.2-272.8c77.1-140.3,156.2-217.4,304.4-294.5c146.3-75.1,355.8-75.1,502.1,0c148.3,77.1,227.3,154.2,304.4,294.5c57.3,110.7,65.2,142.3,65.2,272.8c0,122.6-9.9,166-53.4,251c-77.1,148.3-154.2,227.3-292.6,302.4C1495.3,738.6,1319.4,760.3,1200.8,716.8z M1556.6,374.9c87-65.2,126.5-160.1,116.6-290.6c-11.9-197.7-130.5-298.5-336-284.6c-197.7,11.9-298.5,130.5-284.7,336c7.9,130.5,51.4,203.6,154.2,257C1295.7,440.1,1479.5,430.2,1556.6,374.9z"/><path d="M3446.3,4994.4c-96.9-23.7-262.9-122.6-326.2-193.7c-31.6-37.6-81-112.7-112.7-170l-53.4-102.8V2482V436.1l53.4-102.8C3086.6,183.1,3163.6,106,3304,28.9l124.5-67.2l865.8-5.9l863.8-5.9v-314.3v-316.3h-395.4h-395.3v-158.1V-997h2055.8H8479v158.1v158.1h-395.3h-395.3v316.3v314.3l865.8,5.9l863.8,5.9l124.5,67.2c140.4,77.1,217.4,154.2,296.5,304.4l53.4,102.8V2482v2045.9l-53.4,102.8c-79.1,150.2-156.2,227.3-296.5,304.4l-124.5,67.2l-2955.2,4C4837.9,5006.3,3479.9,5002.3,3446.3,4994.4z M9425.8,4660.4c37.5-17.8,87-59.3,108.7-88.9c41.5-55.4,41.5-71.2,47.4-1785l4-1727.6H6423.2H3260.5l4,1727.6c5.9,1713.8,5.9,1729.6,47.4,1785c21.7,29.6,71.2,71.2,108.7,88.9c63.2,33.6,247.1,35.6,3002.6,35.6C9178.8,4695.9,9362.6,4694,9425.8,4660.4z M9582,596.3c-7.9-168-43.5-237.2-156.1-292.6c-63.3-33.6-247.1-35.6-3002.6-35.6c-2755.5,0-2939.4,2-3002.6,35.6c-112.7,55.4-148.3,124.5-156.2,292.6l-7.9,146.3h3166.7h3166.7L9582,596.3z M7372.1-364.4v-316.3h-948.8h-948.8v316.3v316.3h948.8h948.8V-364.4z"/><path d="M8089.6,4355.9c-106.7-51.4-102.8-215.5,5.9-266.9c130.5-63.3,260.9,59.3,205.6,193.7C8265.5,4367.8,8178.5,4399.4,8089.6,4355.9z"/><path d="M5316.3,3905.3v-158.1h158.1h158.1v158.1v158.1h-158.1h-158.1V3905.3z"/><path d="M7213.9,3905.3v-158.1h158.1h158.1v158.1v158.1h-158.1h-158.1V3905.3z"/><path d="M3727,3677.9c85-124.5,158.1-227.3,166-227.3s81,102.8,166,227.3l150.2,227.3H3893h-316.3L3727,3677.9z"/><path d="M5316.3,3272.7v-158.1h158.1h158.1v158.1v158.1h-158.1h-158.1V3272.7z"/><path d="M7213.9,3272.7v-158.1h158.1h158.1v158.1v158.1h-158.1h-158.1V3272.7z"/><path d="M6201.8,2960.4c-124.5-130.5-229.3-262.9-268.8-336c-90.9-168-142.3-389.4-142.3-600.9v-173.9h-79.1h-79.1v158.1v158.1h-158.1h-158.1v-316.3v-316.3h237.2h237.2v-79.1v-79.1h632.5h632.5v79.1v79.1H7293h237.2v316.3v316.3h-158.1h-158.1v-158.1v-158.1h-79.1h-79.1v173.9c0,211.5-51.4,432.9-142.3,600.9c-59.3,110.7-450.7,549.5-490.2,549.5C6415.3,3173.9,6314.5,3077,6201.8,2960.4z M6530,2620.4c51.4-55.3,116.6-150.2,146.3-213.5c49.4-104.8,53.4-136.4,59.3-413.1l7.9-302.4h-320.2H6103l7.9,302.4c5.9,276.7,9.9,308.4,59.3,413.1c47.4,102.8,217.4,312.3,253,312.3C6431.1,2719.2,6478.6,2673.8,6530,2620.4z"/><path d="M5316.3,2640.2V2482h158.1h158.1v158.1v158.1h-158.1h-158.1V2640.2z"/><path d="M7213.9,2640.2V2482h158.1h158.1v158.1v158.1h-158.1h-158.1V2640.2z"/><path d="M8629.2,2254.7c85-124.5,158.1-227.3,166.1-227.3c7.9,0,81,102.8,166,227.3l150.2,227.3h-316.3H8479L8629.2,2254.7z"/><path d="M305.3-1340.9c-83-35.6-183.8-156.2-197.7-233.3c-5.9-35.6-9.9-725.4-5.9-1532l5.9-1464.7l61.3-77.1c33.6-41.5,90.9-90.9,128.5-108.7c63.3-33.6,328.1-35.6,4702.6-35.6c4477.2,0,4637.3,2,4704.6,37.6c37.6,19.8,94.9,69.2,128.5,108.7l59.3,75.1l5.9,1494.4c4,1678.2,13.8,1569.5-140.3,1692.1l-77.1,61.3l-4657.1,4C1202.7-1315.2,354.7-1319.2,305.3-1340.9z M9585.9-3052.7V-4476H5000H414v1423.2v1423.2H5000h4586V-3052.7z"/><path d="M888.5-2103.9v-158.1h316.3H1521v158.1v158.1h-316.3H888.5V-2103.9z"/><path d="M1837.3-2103.9v-158.1h316.3h316.3v158.1v158.1h-316.3h-316.3V-2103.9z"/><path d="M2786.1-2103.9v-158.1h316.3h316.3v158.1v158.1h-316.3h-316.3V-2103.9z"/><path d="M3734.9-2103.9v-158.1h316.3h316.3v158.1v158.1h-316.3h-316.3V-2103.9z"/><path d="M4683.7-2103.9v-158.1H5000h316.3v158.1v158.1H5000h-316.3V-2103.9z"/><path d="M5632.5-2103.9v-158.1h316.3h316.3v158.1v158.1h-316.3h-316.3V-2103.9z"/><path d="M6581.4-2103.9v-158.1h316.3h316.3v158.1v158.1h-316.3h-316.3V-2103.9z"/><path d="M7530.2-2103.9v-158.1h316.3h316.3v158.1v158.1h-316.3h-316.3V-2103.9z"/><path d="M8479-2103.9v-158.1h316.3h316.3v158.1v158.1h-316.3H8479V-2103.9z"/><path d="M888.5-2736.5v-158.1h316.3H1521v158.1v158.1h-316.3H888.5V-2736.5z"/><path d="M1837.3-2736.5v-158.1h316.3h316.3v158.1v158.1h-316.3h-316.3V-2736.5z"/><path d="M2786.1-2736.5v-158.1h316.3h316.3v158.1v158.1h-316.3h-316.3V-2736.5z"/><path d="M3734.9-2736.5v-158.1h316.3h316.3v158.1v158.1h-316.3h-316.3V-2736.5z"/><path d="M4683.7-2736.5v-158.1H5000h316.3v158.1v158.1H5000h-316.3V-2736.5z"/><path d="M5632.5-2736.5v-158.1h316.3h316.3v158.1v158.1h-316.3h-316.3V-2736.5z"/><path d="M6581.4-2736.5v-158.1h316.3h316.3v158.1v158.1h-316.3h-316.3V-2736.5z"/><path d="M7530.2-2736.5v-158.1h316.3h316.3v158.1v158.1h-316.3h-316.3V-2736.5z"/><path d="M8479-2736.5v-158.1h316.3h316.3v158.1v158.1h-316.3H8479V-2736.5z"/><path d="M888.5-3369v-158.1h316.3H1521v158.1v158.1h-316.3H888.5V-3369z"/><path d="M1837.3-3369v-158.1h316.3h316.3v158.1v158.1h-316.3h-316.3V-3369z"/><path d="M2786.1-3369v-158.1h316.3h316.3v158.1v158.1h-316.3h-316.3V-3369z"/><path d="M3734.9-3369v-158.1h316.3h316.3v158.1v158.1h-316.3h-316.3V-3369z"/><path d="M4683.7-3369v-158.1H5000h316.3v158.1v158.1H5000h-316.3V-3369z"/><path d="M5632.5-3369v-158.1h316.3h316.3v158.1v158.1h-316.3h-316.3V-3369z"/><path d="M6581.4-3369v-158.1h316.3h316.3v158.1v158.1h-316.3h-316.3V-3369z"/><path d="M7530.2-3369v-158.1h316.3h316.3v158.1v158.1h-316.3h-316.3V-3369z"/><path d="M8479-3369v-158.1h316.3h316.3v158.1v158.1h-316.3H8479V-3369z"/><path d="M888.5-4001.6v-158.1h316.3H1521v158.1v158.1h-316.3H888.5V-4001.6z"/><path d="M1837.3-4001.6v-158.1h316.3h316.3v158.1v158.1h-316.3h-316.3V-4001.6z"/><path d="M2786.1-4001.6v-158.1H5000h2213.9v158.1v158.1H5000H2786.1V-4001.6z"/><path d="M7530.2-4001.6v-158.1h316.3h316.3v158.1v158.1h-316.3h-316.3V-4001.6z"/><path d="M8479-4001.6v-158.1h316.3h316.3v158.1v158.1h-316.3H8479V-4001.6z"/></g></g>
</svg>