<svg role="img" viewBox="0 0 22 21" fill="white" xmlns="http://www.w3.org/2000/svg">
    <path
        d="M12.0649 15.3527C11.9118 15.5201 11.6956 15.6154 11.4688 15.6154C11.242 15.6154 11.0257 15.5201 10.8727 15.3527L6.56499 10.6412C6.26399 10.312 6.28687 9.80108 6.61608 9.50008C6.94531 9.19908 7.45619 9.22191 7.75719 9.55112L10.6611 12.7273V0.807692C10.6611 0.36162 11.0227 0 11.4688 0C11.9148 0 12.2765 0.36162 12.2765 0.807692V12.7273L15.1804 9.55112C15.4814 9.22191 15.9923 9.19908 16.3215 9.50008C16.6507 9.80108 16.6736 10.312 16.3726 10.6412L12.0649 15.3527Z" />
    <path
        d="M2.58414 13.7308C2.58414 13.2847 2.22253 12.9231 1.77644 12.9231C1.33037 12.9231 0.968751 13.2847 0.968751 13.7308V13.7899C0.968729 15.2627 0.968707 16.4498 1.09423 17.3835C1.22456 18.3528 1.50337 19.1689 2.15159 19.8171C2.79981 20.4654 3.61598 20.7442 4.58533 20.8745C5.51899 21 6.7061 21 8.17889 21H14.7586C16.2314 21 17.4185 21 18.3522 20.8745C19.3216 20.7442 20.1377 20.4654 20.786 19.8171C21.4342 19.1689 21.713 18.3528 21.8433 17.3835C21.9688 16.4498 21.9688 15.2627 21.9688 13.7899V13.7308C21.9688 13.2847 21.6071 12.9231 21.1611 12.9231C20.715 12.9231 20.3534 13.2847 20.3534 13.7308C20.3534 15.2766 20.3516 16.3547 20.2423 17.1682C20.136 17.9584 19.9418 18.3768 19.6437 18.6749C19.3456 18.973 18.9272 19.1673 18.137 19.2736C17.3234 19.3829 16.2453 19.3846 14.6995 19.3846H8.23798C6.69216 19.3846 5.61403 19.3829 4.80057 19.2736C4.01036 19.1673 3.59189 18.973 3.29384 18.6749C2.99579 18.3768 2.80146 17.9584 2.69522 17.1682C2.58585 16.3547 2.58414 15.2766 2.58414 13.7308Z" />
</svg>