<svg width="25" height="25" viewBox="0 0 25 25" fill="none" xmlns="http://www.w3.org/2000/svg">
    <path
        d="M5.5971 25H0.412946V8.30915H5.5971V25ZM3.00223 6.03237C1.34487 6.03237 0 4.6596 0 3.00223C0 2.20599 0.316306 1.44236 0.879333 0.879333C1.44236 0.316306 2.20599 0 3.00223 0C3.79847 0 4.5621 0.316306 5.12513 0.879333C5.68816 1.44236 6.00446 2.20599 6.00446 3.00223C6.00446 4.6596 4.6596 6.03237 3.00223 6.03237ZM24.9944 25H19.8214V16.875C19.8214 14.9386 19.7824 12.4554 17.1261 12.4554C14.4308 12.4554 14.0179 14.5592 14.0179 16.7355V25H8.83928V8.30915H13.8114V10.5859H13.8839C14.5759 9.27455 16.2667 7.89062 18.7891 7.89062C24.0346 7.89062 25 11.3449 25 15.8315V25H24.9944Z"
        fill="white" />
</svg>