<?xml version="1.0" encoding="iso-8859-1"?>
<!-- Generator: Adobe Illustrator 19.0.0, SVG Export Plug-In . SVG Version: 6.00 Build 0)  -->
<svg version="1.1" id="Layer_1" xmlns="http://www.w3.org/2000/svg" xmlns:xlink="http://www.w3.org/1999/xlink" x="0px" y="0px"
	 viewBox="0 0 489.1 489.1" style="enable-background:new 0 0 489.1 489.1;" xml:space="preserve">
<g transform="translate(0 -540.36)">
	<g>
		<g>
			<path d="M180.1,910.96c-3.9-3.9-10.2-3.9-14.1,0l-20.6,20.6c-3.9,3.9-3.9,10.2,0,14.1c2,1.9,4.5,2.9,7.1,2.9c2.5,0,5.1-1,7-3
				l20.6-20.5C184,921.16,184,914.86,180.1,910.96z"/>
			<path d="M246.6,911.06l-19.8,20.6c-3.8,3.9-3.7,10.3,0.3,14.1c1.9,1.9,4.4,2.8,6.9,2.8c2.7,0,5.3-1.1,7.2-3.1l19.8-20.6
				c3.8-3.9,3.7-10.3-0.3-14.1C256.8,906.96,250.4,907.06,246.6,911.06z"/>
			<path d="M328.3,910.96l-20.6,20.6c-3.9,3.9-3.9,10.2,0,14.1c2,1.9,4.5,2.9,7.1,2.9c2.6,0,5.1-1,7-2.9l20.6-20.6
				c3.9-3.9,3.9-10.2,0-14.1C338.5,907.06,332.2,907.06,328.3,910.96z"/>
			<path d="M409.9,910.96l-20.6,20.6c-3.9,3.9-3.9,10.2,0,14.1c2,1.9,4.5,2.9,7.1,2.9c2.5,0,5.1-1,7.1-3l20.5-20.5
				c3.9-3.9,3.9-10.2,0-14.1C420.1,907.06,413.8,907.06,409.9,910.96z"/>
			<path d="M84.4,910.96l-20.6,20.6c-3.9,3.9-3.9,10.2,0,14.1c2,1.9,4.5,2.9,7.1,2.9c2.6,0,5.1-1,7-2.9l20.6-20.6
				c3.9-3.9,3.9-10.2,0-14.1C94.6,907.06,88.3,907.06,84.4,910.96z"/>
			<path d="M206.4,981.96l-20.6,20.6c-3.9,3.9-3.9,10.2,0,14.1c2,1.9,4.5,2.9,7.1,2.9c2.5,0,5.1-1,7-2.9l20.6-20.6
				c3.9-3.9,3.9-10.2,0-14.1S210.3,978.06,206.4,981.96z"/>
			<path d="M287.9,981.96l-20.6,20.6c-3.9,3.9-3.9,10.2,0,14.1c2,1.9,4.5,2.9,7.1,2.9c2.6,0,5.1-1,7.1-2.9l20.5-20.6
				c3.9-3.9,3.9-10.2,0-14.1C298.1,978.06,291.8,978.06,287.9,981.96z"/>
			<path d="M368.6,982.06l-19.8,20.6c-3.8,3.9-3.7,10.3,0.3,14.1c1.9,1.9,4.4,2.8,6.9,2.8c2.6,0,5.2-1,7.2-3.1l19.8-20.6
				c3.8-3.9,3.7-10.3-0.3-14.1C378.8,977.96,372.4,978.06,368.6,982.06z"/>
			<path d="M124.7,982.06l-19.8,20.6c-3.8,3.9-3.7,10.3,0.3,14.1c1.9,1.9,4.4,2.8,6.9,2.8c2.6,0,5.2-1,7.2-3.1l19.8-20.6
				c3.8-3.9,3.7-10.3-0.3-14.1C134.9,977.96,128.5,978.06,124.7,982.06z"/>
			<path d="M397.5,611.46c-8,0-16.6,1.3-24.7,3.7c-21.5-39.7-62.6-64.9-107.1-64.9c-26.2,0-51.3,8.3-72.5,24
				c-18.1,13.4-32.3,31.8-40.7,52.4c-9.8-2.5-20.1-3.9-30.5-3.9c-67.3,0-122,54.5-122,121.6c0,67.4,54.7,122.3,122,122.3h131.9
				c43.7,0,80.3-30.8,89.4-71.8h54.2c50.5,0,91.6-41.2,91.6-91.8C489.1,652.66,448,611.46,397.5,611.46z M253.8,846.76L253.8,846.76
				l-131.8,0c-56.3,0-102-45.9-102-102.3c0-56,45.8-101.6,102-101.6c40.6,0,77.1,23.7,93,60.4c2.1,4.9,7.8,7.3,12.8,5.4
				c8.2-3.1,16.7-4.7,26.1-4.7c39.5,0,71.6,31.8,71.6,71C325.4,814.56,293.3,846.76,253.8,846.76z M397.5,774.96L397.5,774.96
				l-52.1,0c0-24.4-9.6-47.3-26.9-64.5c-17.3-17.1-40.2-26.5-64.7-26.5c-8.6,0-16.7,1-24.5,3.1c-12.8-24.3-33.4-43-57.9-53.9
				c15.7-37.5,53.3-63,94.2-63c39.7,0,76.2,24.1,93,61.4c2.2,4.9,8,7.2,13,5.1c8.1-3.4,17.6-5.3,25.9-5.3
				c39.5,0,71.6,32.2,71.6,71.8S437,774.96,397.5,774.96z"/>
		</g>
	</g>
</g>
<g>
</g>
<g>
</g>
<g>
</g>
<g>
</g>
<g>
</g>
<g>
</g>
<g>
</g>
<g>
</g>
<g>
</g>
<g>
</g>
<g>
</g>
<g>
</g>
<g>
</g>
<g>
</g>
<g>
</g>
</svg>
